<mxfile host="65bd71144e">
    <diagram id="n1W_ApWnhjkMiSCPPzQN" name="ページ1">
        <mxGraphModel dx="1204" dy="897" grid="1" gridSize="10" guides="1" tooltips="1" connect="1" arrows="1" fold="1" page="1" pageScale="1" pageWidth="827" pageHeight="1169" math="1" shadow="0">
            <root>
                <mxCell id="0"/>
                <mxCell id="1" parent="0"/>
                <mxCell id="lEeiBPhJxZQjCqQOIjRc-68" value="`G`の隣接行列" style="text;html=1;align=center;verticalAlign=middle;resizable=0;points=[];autosize=1;fontSize=20;" parent="1" vertex="1">
                    <mxGeometry x="600" y="560" width="140" height="30" as="geometry"/>
                </mxCell>
                <mxCell id="lEeiBPhJxZQjCqQOIjRc-305" value="`G`の隣接リスト" style="text;html=1;align=center;verticalAlign=middle;resizable=0;points=[];autosize=1;fontSize=20;" parent="1" vertex="1">
                    <mxGeometry x="190" y="560" width="160" height="30" as="geometry"/>
                </mxCell>
                <mxCell id="NL5qNIgNbva87kqhSv1B-59" value="" style="group;fontSize=22;" parent="1" vertex="1" connectable="0">
                    <mxGeometry x="225" y="90" width="360" height="205" as="geometry"/>
                </mxCell>
                <mxCell id="lEeiBPhJxZQjCqQOIjRc-112" value="" style="ellipse;whiteSpace=wrap;html=1;aspect=fixed;fontSize=22;" parent="NL5qNIgNbva87kqhSv1B-59" vertex="1">
                    <mxGeometry x="80" y="10" width="20" height="20" as="geometry"/>
                </mxCell>
                <mxCell id="lEeiBPhJxZQjCqQOIjRc-113" value="" style="endArrow=none;html=1;exitX=1;exitY=0.5;exitDx=0;exitDy=0;entryX=0;entryY=0.5;entryDx=0;entryDy=0;fontSize=22;" parent="NL5qNIgNbva87kqhSv1B-59" source="lEeiBPhJxZQjCqQOIjRc-112" target="lEeiBPhJxZQjCqQOIjRc-114" edge="1">
                    <mxGeometry width="50" height="50" relative="1" as="geometry">
                        <mxPoint x="190" y="70" as="sourcePoint"/>
                        <mxPoint x="240" y="20" as="targetPoint"/>
                    </mxGeometry>
                </mxCell>
                <mxCell id="lEeiBPhJxZQjCqQOIjRc-114" value="" style="ellipse;whiteSpace=wrap;html=1;aspect=fixed;fontSize=22;" parent="NL5qNIgNbva87kqhSv1B-59" vertex="1">
                    <mxGeometry x="240" y="10" width="20" height="20" as="geometry"/>
                </mxCell>
                <mxCell id="lEeiBPhJxZQjCqQOIjRc-115" style="rounded=0;orthogonalLoop=1;jettySize=auto;html=1;exitX=1;exitY=0;exitDx=0;exitDy=0;entryX=0;entryY=1;entryDx=0;entryDy=0;endArrow=none;endFill=0;fontSize=22;" parent="NL5qNIgNbva87kqhSv1B-59" source="lEeiBPhJxZQjCqQOIjRc-119" target="lEeiBPhJxZQjCqQOIjRc-114" edge="1">
                    <mxGeometry relative="1" as="geometry"/>
                </mxCell>
                <mxCell id="lEeiBPhJxZQjCqQOIjRc-116" style="edgeStyle=none;rounded=0;orthogonalLoop=1;jettySize=auto;html=1;exitX=0;exitY=0;exitDx=0;exitDy=0;entryX=1;entryY=1;entryDx=0;entryDy=0;endArrow=none;endFill=0;fontSize=22;" parent="NL5qNIgNbva87kqhSv1B-59" source="lEeiBPhJxZQjCqQOIjRc-119" target="lEeiBPhJxZQjCqQOIjRc-112" edge="1">
                    <mxGeometry relative="1" as="geometry"/>
                </mxCell>
                <mxCell id="lEeiBPhJxZQjCqQOIjRc-119" value="" style="ellipse;whiteSpace=wrap;html=1;aspect=fixed;fontSize=22;" parent="NL5qNIgNbva87kqhSv1B-59" vertex="1">
                    <mxGeometry x="160" y="90" width="20" height="20" as="geometry"/>
                </mxCell>
                <mxCell id="lEeiBPhJxZQjCqQOIjRc-120" value="" style="ellipse;whiteSpace=wrap;html=1;aspect=fixed;fontSize=22;" parent="NL5qNIgNbva87kqhSv1B-59" vertex="1">
                    <mxGeometry x="80" y="170" width="20" height="20" as="geometry"/>
                </mxCell>
                <mxCell id="lEeiBPhJxZQjCqQOIjRc-118" style="edgeStyle=none;rounded=0;orthogonalLoop=1;jettySize=auto;html=1;exitX=0;exitY=1;exitDx=0;exitDy=0;entryX=1;entryY=0;entryDx=0;entryDy=0;endArrow=none;endFill=0;fontSize=22;" parent="NL5qNIgNbva87kqhSv1B-59" source="lEeiBPhJxZQjCqQOIjRc-119" target="lEeiBPhJxZQjCqQOIjRc-120" edge="1">
                    <mxGeometry relative="1" as="geometry"/>
                </mxCell>
                <mxCell id="lEeiBPhJxZQjCqQOIjRc-121" value="" style="ellipse;whiteSpace=wrap;html=1;aspect=fixed;fontSize=22;" parent="NL5qNIgNbva87kqhSv1B-59" vertex="1">
                    <mxGeometry x="240" y="170" width="20" height="20" as="geometry"/>
                </mxCell>
                <mxCell id="lEeiBPhJxZQjCqQOIjRc-117" style="edgeStyle=none;rounded=0;orthogonalLoop=1;jettySize=auto;html=1;exitX=1;exitY=1;exitDx=0;exitDy=0;entryX=0;entryY=0;entryDx=0;entryDy=0;endArrow=none;endFill=0;fontSize=22;" parent="NL5qNIgNbva87kqhSv1B-59" source="lEeiBPhJxZQjCqQOIjRc-119" target="lEeiBPhJxZQjCqQOIjRc-121" edge="1">
                    <mxGeometry relative="1" as="geometry"/>
                </mxCell>
                <mxCell id="lEeiBPhJxZQjCqQOIjRc-122" value="&lt;font style=&quot;font-size: 22px;&quot;&gt;\( v_1 \)&lt;/font&gt;" style="text;html=1;align=center;verticalAlign=middle;resizable=0;points=[];autosize=1;fontSize=22;" parent="NL5qNIgNbva87kqhSv1B-59" vertex="1">
                    <mxGeometry x="20" y="-5" width="90" height="30" as="geometry"/>
                </mxCell>
                <mxCell id="lEeiBPhJxZQjCqQOIjRc-123" value="&lt;font style=&quot;font-size: 22px;&quot;&gt;\( v_2 \)&lt;/font&gt;" style="text;html=1;align=center;verticalAlign=middle;resizable=0;points=[];autosize=1;fontSize=22;" parent="NL5qNIgNbva87kqhSv1B-59" vertex="1">
                    <mxGeometry x="230" y="-5" width="90" height="30" as="geometry"/>
                </mxCell>
                <mxCell id="lEeiBPhJxZQjCqQOIjRc-124" value="&lt;font style=&quot;font-size: 22px;&quot;&gt;\( v_4 \)&lt;/font&gt;" style="text;html=1;align=center;verticalAlign=middle;resizable=0;points=[];autosize=1;fontSize=22;" parent="NL5qNIgNbva87kqhSv1B-59" vertex="1">
                    <mxGeometry x="20" y="175" width="90" height="30" as="geometry"/>
                </mxCell>
                <mxCell id="lEeiBPhJxZQjCqQOIjRc-125" value="&lt;font style=&quot;font-size: 22px;&quot;&gt;\( v_5 \)&lt;/font&gt;" style="text;html=1;align=center;verticalAlign=middle;resizable=0;points=[];autosize=1;fontSize=22;" parent="NL5qNIgNbva87kqhSv1B-59" vertex="1">
                    <mxGeometry x="230" y="175" width="90" height="30" as="geometry"/>
                </mxCell>
                <mxCell id="lEeiBPhJxZQjCqQOIjRc-126" value="&lt;font style=&quot;font-size: 22px;&quot;&gt;\( v_3 \)&lt;/font&gt;" style="text;html=1;align=center;verticalAlign=middle;resizable=0;points=[];autosize=1;fontSize=22;" parent="NL5qNIgNbva87kqhSv1B-59" vertex="1">
                    <mxGeometry x="160" y="85" width="90" height="30" as="geometry"/>
                </mxCell>
                <mxCell id="lEeiBPhJxZQjCqQOIjRc-127" value="&lt;font style=&quot;font-size: 22px;&quot;&gt;$$ G : $$&lt;/font&gt;" style="text;html=1;align=center;verticalAlign=middle;resizable=0;points=[];autosize=1;fontSize=22;" parent="NL5qNIgNbva87kqhSv1B-59" vertex="1">
                    <mxGeometry x="-30" y="85" width="110" height="30" as="geometry"/>
                </mxCell>
                <mxCell id="lEeiBPhJxZQjCqQOIjRc-306" value="" style="ellipse;whiteSpace=wrap;html=1;aspect=fixed;fontSize=22;" parent="NL5qNIgNbva87kqhSv1B-59" vertex="1">
                    <mxGeometry x="280" y="90" width="20" height="20" as="geometry"/>
                </mxCell>
                <mxCell id="lEeiBPhJxZQjCqQOIjRc-307" value="&lt;font style=&quot;font-size: 22px;&quot;&gt;\( v_6 \)&lt;/font&gt;" style="text;html=1;align=center;verticalAlign=middle;resizable=0;points=[];autosize=1;fontSize=22;" parent="NL5qNIgNbva87kqhSv1B-59" vertex="1">
                    <mxGeometry x="270" y="75" width="90" height="30" as="geometry"/>
                </mxCell>
                <mxCell id="NL5qNIgNbva87kqhSv1B-61" value="" style="group;fontSize=20;" parent="1" vertex="1" connectable="0">
                    <mxGeometry x="500" y="345" width="265" height="200" as="geometry"/>
                </mxCell>
                <mxCell id="NL5qNIgNbva87kqhSv1B-60" value="" style="group;fontSize=20;" parent="NL5qNIgNbva87kqhSv1B-61" vertex="1" connectable="0">
                    <mxGeometry width="265" height="200" as="geometry"/>
                </mxCell>
                <mxCell id="lEeiBPhJxZQjCqQOIjRc-65" value="" style="shape=partialRectangle;whiteSpace=wrap;html=1;bottom=1;right=1;left=1;top=0;routingCenterX=-0.5;direction=south;strokeWidth=1;perimeterSpacing=0;fontSize=20;" parent="NL5qNIgNbva87kqhSv1B-60" vertex="1">
                    <mxGeometry x="95" width="10" height="200" as="geometry"/>
                </mxCell>
                <mxCell id="lEeiBPhJxZQjCqQOIjRc-66" value="" style="shape=partialRectangle;whiteSpace=wrap;html=1;bottom=1;right=1;left=1;top=0;routingCenterX=-0.5;direction=north;strokeWidth=1;perimeterSpacing=0;fontSize=20;" parent="NL5qNIgNbva87kqhSv1B-60" vertex="1">
                    <mxGeometry x="255" width="10" height="200" as="geometry"/>
                </mxCell>
                <mxCell id="lEeiBPhJxZQjCqQOIjRc-67" value="$$ A = $$" style="text;html=1;align=center;verticalAlign=middle;resizable=0;points=[];autosize=1;fontSize=20;" parent="NL5qNIgNbva87kqhSv1B-60" vertex="1">
                    <mxGeometry x="-10" y="85" width="100" height="30" as="geometry"/>
                </mxCell>
                <mxCell id="lEeiBPhJxZQjCqQOIjRc-69" value="" style="shape=table;html=1;whiteSpace=wrap;startSize=0;container=1;collapsible=0;childLayout=tableLayout;strokeColor=none;fontSize=20;" parent="NL5qNIgNbva87kqhSv1B-60" vertex="1">
                    <mxGeometry x="105" width="150" height="200" as="geometry"/>
                </mxCell>
                <mxCell id="lEeiBPhJxZQjCqQOIjRc-70" value="" style="shape=partialRectangle;html=1;whiteSpace=wrap;collapsible=0;dropTarget=0;pointerEvents=0;fillColor=none;top=0;left=0;bottom=0;right=0;points=[[0,0.5],[1,0.5]];portConstraint=eastwest;fontSize=20;" parent="lEeiBPhJxZQjCqQOIjRc-69" vertex="1">
                    <mxGeometry width="150" height="33" as="geometry"/>
                </mxCell>
                <mxCell id="lEeiBPhJxZQjCqQOIjRc-71" value="&lt;font style=&quot;font-size: 20px;&quot;&gt;0&lt;/font&gt;" style="shape=partialRectangle;html=1;whiteSpace=wrap;connectable=0;overflow=hidden;fillColor=none;top=0;left=0;bottom=0;right=0;fontSize=20;" parent="lEeiBPhJxZQjCqQOIjRc-70" vertex="1">
                    <mxGeometry width="26" height="33" as="geometry">
                        <mxRectangle width="26" height="33" as="alternateBounds"/>
                    </mxGeometry>
                </mxCell>
                <mxCell id="lEeiBPhJxZQjCqQOIjRc-72" value="&lt;font style=&quot;font-size: 20px;&quot;&gt;1&lt;/font&gt;" style="shape=partialRectangle;html=1;whiteSpace=wrap;connectable=0;overflow=hidden;fillColor=none;top=0;left=0;bottom=0;right=0;fontSize=20;" parent="lEeiBPhJxZQjCqQOIjRc-70" vertex="1">
                    <mxGeometry x="26" width="23" height="33" as="geometry">
                        <mxRectangle width="23" height="33" as="alternateBounds"/>
                    </mxGeometry>
                </mxCell>
                <mxCell id="lEeiBPhJxZQjCqQOIjRc-73" value="&lt;font style=&quot;font-size: 20px;&quot;&gt;1&lt;/font&gt;" style="shape=partialRectangle;html=1;whiteSpace=wrap;connectable=0;overflow=hidden;fillColor=none;top=0;left=0;bottom=0;right=0;fontSize=20;" parent="lEeiBPhJxZQjCqQOIjRc-70" vertex="1">
                    <mxGeometry x="49" width="26" height="33" as="geometry">
                        <mxRectangle width="26" height="33" as="alternateBounds"/>
                    </mxGeometry>
                </mxCell>
                <mxCell id="lEeiBPhJxZQjCqQOIjRc-74" value="&lt;font style=&quot;font-size: 20px;&quot;&gt;0&lt;/font&gt;" style="shape=partialRectangle;html=1;whiteSpace=wrap;connectable=0;overflow=hidden;fillColor=none;top=0;left=0;bottom=0;right=0;fontSize=20;" parent="lEeiBPhJxZQjCqQOIjRc-70" vertex="1">
                    <mxGeometry x="75" width="26" height="33" as="geometry">
                        <mxRectangle width="26" height="33" as="alternateBounds"/>
                    </mxGeometry>
                </mxCell>
                <mxCell id="lEeiBPhJxZQjCqQOIjRc-75" value="&lt;font style=&quot;font-size: 20px;&quot;&gt;0&lt;/font&gt;" style="shape=partialRectangle;html=1;whiteSpace=wrap;connectable=0;overflow=hidden;fillColor=none;top=0;left=0;bottom=0;right=0;fontSize=20;" parent="lEeiBPhJxZQjCqQOIjRc-70" vertex="1">
                    <mxGeometry x="101" width="23" height="33" as="geometry">
                        <mxRectangle width="23" height="33" as="alternateBounds"/>
                    </mxGeometry>
                </mxCell>
                <mxCell id="lEeiBPhJxZQjCqQOIjRc-76" value="&lt;font style=&quot;font-size: 20px;&quot;&gt;0&lt;/font&gt;" style="shape=partialRectangle;html=1;whiteSpace=wrap;connectable=0;overflow=hidden;fillColor=none;top=0;left=0;bottom=0;right=0;fontSize=20;" parent="lEeiBPhJxZQjCqQOIjRc-70" vertex="1">
                    <mxGeometry x="124" width="26" height="33" as="geometry">
                        <mxRectangle width="26" height="33" as="alternateBounds"/>
                    </mxGeometry>
                </mxCell>
                <mxCell id="lEeiBPhJxZQjCqQOIjRc-77" value="" style="shape=partialRectangle;html=1;whiteSpace=wrap;collapsible=0;dropTarget=0;pointerEvents=0;fillColor=none;top=0;left=0;bottom=0;right=0;points=[[0,0.5],[1,0.5]];portConstraint=eastwest;fontSize=20;" parent="lEeiBPhJxZQjCqQOIjRc-69" vertex="1">
                    <mxGeometry y="33" width="150" height="34" as="geometry"/>
                </mxCell>
                <mxCell id="lEeiBPhJxZQjCqQOIjRc-78" value="&lt;font style=&quot;font-size: 20px;&quot;&gt;1&lt;/font&gt;" style="shape=partialRectangle;html=1;whiteSpace=wrap;connectable=0;overflow=hidden;fillColor=none;top=0;left=0;bottom=0;right=0;fontSize=20;" parent="lEeiBPhJxZQjCqQOIjRc-77" vertex="1">
                    <mxGeometry width="26" height="34" as="geometry">
                        <mxRectangle width="26" height="34" as="alternateBounds"/>
                    </mxGeometry>
                </mxCell>
                <mxCell id="lEeiBPhJxZQjCqQOIjRc-79" value="&lt;font style=&quot;font-size: 20px;&quot;&gt;0&lt;/font&gt;" style="shape=partialRectangle;html=1;whiteSpace=wrap;connectable=0;overflow=hidden;fillColor=none;top=0;left=0;bottom=0;right=0;fontSize=20;" parent="lEeiBPhJxZQjCqQOIjRc-77" vertex="1">
                    <mxGeometry x="26" width="23" height="34" as="geometry">
                        <mxRectangle width="23" height="34" as="alternateBounds"/>
                    </mxGeometry>
                </mxCell>
                <mxCell id="lEeiBPhJxZQjCqQOIjRc-80" value="&lt;font style=&quot;font-size: 20px;&quot;&gt;1&lt;/font&gt;" style="shape=partialRectangle;html=1;whiteSpace=wrap;connectable=0;overflow=hidden;fillColor=none;top=0;left=0;bottom=0;right=0;fontSize=20;" parent="lEeiBPhJxZQjCqQOIjRc-77" vertex="1">
                    <mxGeometry x="49" width="26" height="34" as="geometry">
                        <mxRectangle width="26" height="34" as="alternateBounds"/>
                    </mxGeometry>
                </mxCell>
                <mxCell id="lEeiBPhJxZQjCqQOIjRc-81" value="&lt;font style=&quot;font-size: 20px;&quot;&gt;0&lt;/font&gt;" style="shape=partialRectangle;html=1;whiteSpace=wrap;connectable=0;overflow=hidden;fillColor=none;top=0;left=0;bottom=0;right=0;fontSize=20;" parent="lEeiBPhJxZQjCqQOIjRc-77" vertex="1">
                    <mxGeometry x="75" width="26" height="34" as="geometry">
                        <mxRectangle width="26" height="34" as="alternateBounds"/>
                    </mxGeometry>
                </mxCell>
                <mxCell id="lEeiBPhJxZQjCqQOIjRc-82" value="&lt;font style=&quot;font-size: 20px;&quot;&gt;0&lt;/font&gt;" style="shape=partialRectangle;html=1;whiteSpace=wrap;connectable=0;overflow=hidden;fillColor=none;top=0;left=0;bottom=0;right=0;fontSize=20;" parent="lEeiBPhJxZQjCqQOIjRc-77" vertex="1">
                    <mxGeometry x="101" width="23" height="34" as="geometry">
                        <mxRectangle width="23" height="34" as="alternateBounds"/>
                    </mxGeometry>
                </mxCell>
                <mxCell id="lEeiBPhJxZQjCqQOIjRc-83" value="&lt;font style=&quot;font-size: 20px;&quot;&gt;0&lt;/font&gt;" style="shape=partialRectangle;html=1;whiteSpace=wrap;connectable=0;overflow=hidden;fillColor=none;top=0;left=0;bottom=0;right=0;fontSize=20;" parent="lEeiBPhJxZQjCqQOIjRc-77" vertex="1">
                    <mxGeometry x="124" width="26" height="34" as="geometry">
                        <mxRectangle width="26" height="34" as="alternateBounds"/>
                    </mxGeometry>
                </mxCell>
                <mxCell id="lEeiBPhJxZQjCqQOIjRc-84" value="" style="shape=partialRectangle;html=1;whiteSpace=wrap;collapsible=0;dropTarget=0;pointerEvents=0;fillColor=none;top=0;left=0;bottom=0;right=0;points=[[0,0.5],[1,0.5]];portConstraint=eastwest;fontSize=20;" parent="lEeiBPhJxZQjCqQOIjRc-69" vertex="1">
                    <mxGeometry y="67" width="150" height="33" as="geometry"/>
                </mxCell>
                <mxCell id="lEeiBPhJxZQjCqQOIjRc-85" value="&lt;font style=&quot;font-size: 20px;&quot;&gt;1&lt;/font&gt;" style="shape=partialRectangle;html=1;whiteSpace=wrap;connectable=0;overflow=hidden;fillColor=none;top=0;left=0;bottom=0;right=0;fontSize=20;" parent="lEeiBPhJxZQjCqQOIjRc-84" vertex="1">
                    <mxGeometry width="26" height="33" as="geometry">
                        <mxRectangle width="26" height="33" as="alternateBounds"/>
                    </mxGeometry>
                </mxCell>
                <mxCell id="lEeiBPhJxZQjCqQOIjRc-86" value="&lt;font style=&quot;font-size: 20px;&quot;&gt;1&lt;/font&gt;" style="shape=partialRectangle;html=1;whiteSpace=wrap;connectable=0;overflow=hidden;fillColor=none;top=0;left=0;bottom=0;right=0;fontSize=20;" parent="lEeiBPhJxZQjCqQOIjRc-84" vertex="1">
                    <mxGeometry x="26" width="23" height="33" as="geometry">
                        <mxRectangle width="23" height="33" as="alternateBounds"/>
                    </mxGeometry>
                </mxCell>
                <mxCell id="lEeiBPhJxZQjCqQOIjRc-87" value="&lt;font style=&quot;font-size: 20px;&quot;&gt;0&lt;/font&gt;" style="shape=partialRectangle;html=1;whiteSpace=wrap;connectable=0;overflow=hidden;fillColor=none;top=0;left=0;bottom=0;right=0;fontSize=20;" parent="lEeiBPhJxZQjCqQOIjRc-84" vertex="1">
                    <mxGeometry x="49" width="26" height="33" as="geometry">
                        <mxRectangle width="26" height="33" as="alternateBounds"/>
                    </mxGeometry>
                </mxCell>
                <mxCell id="lEeiBPhJxZQjCqQOIjRc-88" value="&lt;font style=&quot;font-size: 20px;&quot;&gt;1&lt;/font&gt;" style="shape=partialRectangle;html=1;whiteSpace=wrap;connectable=0;overflow=hidden;fillColor=none;top=0;left=0;bottom=0;right=0;fontSize=20;" parent="lEeiBPhJxZQjCqQOIjRc-84" vertex="1">
                    <mxGeometry x="75" width="26" height="33" as="geometry">
                        <mxRectangle width="26" height="33" as="alternateBounds"/>
                    </mxGeometry>
                </mxCell>
                <mxCell id="lEeiBPhJxZQjCqQOIjRc-89" value="&lt;font style=&quot;font-size: 20px;&quot;&gt;1&lt;/font&gt;" style="shape=partialRectangle;html=1;whiteSpace=wrap;connectable=0;overflow=hidden;fillColor=none;top=0;left=0;bottom=0;right=0;fontSize=20;" parent="lEeiBPhJxZQjCqQOIjRc-84" vertex="1">
                    <mxGeometry x="101" width="23" height="33" as="geometry">
                        <mxRectangle width="23" height="33" as="alternateBounds"/>
                    </mxGeometry>
                </mxCell>
                <mxCell id="lEeiBPhJxZQjCqQOIjRc-90" value="&lt;font style=&quot;font-size: 20px;&quot;&gt;0&lt;/font&gt;" style="shape=partialRectangle;html=1;whiteSpace=wrap;connectable=0;overflow=hidden;fillColor=none;top=0;left=0;bottom=0;right=0;fontSize=20;" parent="lEeiBPhJxZQjCqQOIjRc-84" vertex="1">
                    <mxGeometry x="124" width="26" height="33" as="geometry">
                        <mxRectangle width="26" height="33" as="alternateBounds"/>
                    </mxGeometry>
                </mxCell>
                <mxCell id="lEeiBPhJxZQjCqQOIjRc-91" value="" style="shape=partialRectangle;html=1;whiteSpace=wrap;collapsible=0;dropTarget=0;pointerEvents=0;fillColor=none;top=0;left=0;bottom=0;right=0;points=[[0,0.5],[1,0.5]];portConstraint=eastwest;fontSize=20;" parent="lEeiBPhJxZQjCqQOIjRc-69" vertex="1">
                    <mxGeometry y="100" width="150" height="33" as="geometry"/>
                </mxCell>
                <mxCell id="lEeiBPhJxZQjCqQOIjRc-92" value="&lt;font style=&quot;font-size: 20px;&quot;&gt;0&lt;/font&gt;" style="shape=partialRectangle;html=1;whiteSpace=wrap;connectable=0;overflow=hidden;fillColor=none;top=0;left=0;bottom=0;right=0;fontSize=20;" parent="lEeiBPhJxZQjCqQOIjRc-91" vertex="1">
                    <mxGeometry width="26" height="33" as="geometry">
                        <mxRectangle width="26" height="33" as="alternateBounds"/>
                    </mxGeometry>
                </mxCell>
                <mxCell id="lEeiBPhJxZQjCqQOIjRc-93" value="&lt;font style=&quot;font-size: 20px;&quot;&gt;0&lt;/font&gt;" style="shape=partialRectangle;html=1;whiteSpace=wrap;connectable=0;overflow=hidden;fillColor=none;top=0;left=0;bottom=0;right=0;fontSize=20;" parent="lEeiBPhJxZQjCqQOIjRc-91" vertex="1">
                    <mxGeometry x="26" width="23" height="33" as="geometry">
                        <mxRectangle width="23" height="33" as="alternateBounds"/>
                    </mxGeometry>
                </mxCell>
                <mxCell id="lEeiBPhJxZQjCqQOIjRc-94" value="&lt;font style=&quot;font-size: 20px;&quot;&gt;1&lt;/font&gt;" style="shape=partialRectangle;html=1;whiteSpace=wrap;connectable=0;overflow=hidden;fillColor=none;top=0;left=0;bottom=0;right=0;fontSize=20;" parent="lEeiBPhJxZQjCqQOIjRc-91" vertex="1">
                    <mxGeometry x="49" width="26" height="33" as="geometry">
                        <mxRectangle width="26" height="33" as="alternateBounds"/>
                    </mxGeometry>
                </mxCell>
                <mxCell id="lEeiBPhJxZQjCqQOIjRc-95" value="&lt;font style=&quot;font-size: 20px;&quot;&gt;0&lt;/font&gt;" style="shape=partialRectangle;html=1;whiteSpace=wrap;connectable=0;overflow=hidden;fillColor=none;top=0;left=0;bottom=0;right=0;fontSize=20;" parent="lEeiBPhJxZQjCqQOIjRc-91" vertex="1">
                    <mxGeometry x="75" width="26" height="33" as="geometry">
                        <mxRectangle width="26" height="33" as="alternateBounds"/>
                    </mxGeometry>
                </mxCell>
                <mxCell id="lEeiBPhJxZQjCqQOIjRc-96" value="0" style="shape=partialRectangle;html=1;whiteSpace=wrap;connectable=0;overflow=hidden;fillColor=none;top=0;left=0;bottom=0;right=0;fontSize=20;" parent="lEeiBPhJxZQjCqQOIjRc-91" vertex="1">
                    <mxGeometry x="101" width="23" height="33" as="geometry">
                        <mxRectangle width="23" height="33" as="alternateBounds"/>
                    </mxGeometry>
                </mxCell>
                <mxCell id="lEeiBPhJxZQjCqQOIjRc-97" value="0" style="shape=partialRectangle;html=1;whiteSpace=wrap;connectable=0;overflow=hidden;fillColor=none;top=0;left=0;bottom=0;right=0;fontSize=20;" parent="lEeiBPhJxZQjCqQOIjRc-91" vertex="1">
                    <mxGeometry x="124" width="26" height="33" as="geometry">
                        <mxRectangle width="26" height="33" as="alternateBounds"/>
                    </mxGeometry>
                </mxCell>
                <mxCell id="lEeiBPhJxZQjCqQOIjRc-98" value="" style="shape=partialRectangle;html=1;whiteSpace=wrap;collapsible=0;dropTarget=0;pointerEvents=0;fillColor=none;top=0;left=0;bottom=0;right=0;points=[[0,0.5],[1,0.5]];portConstraint=eastwest;fontSize=20;" parent="lEeiBPhJxZQjCqQOIjRc-69" vertex="1">
                    <mxGeometry y="133" width="150" height="34" as="geometry"/>
                </mxCell>
                <mxCell id="lEeiBPhJxZQjCqQOIjRc-99" value="0" style="shape=partialRectangle;html=1;whiteSpace=wrap;connectable=0;overflow=hidden;fillColor=none;top=0;left=0;bottom=0;right=0;fontSize=20;" parent="lEeiBPhJxZQjCqQOIjRc-98" vertex="1">
                    <mxGeometry width="26" height="34" as="geometry">
                        <mxRectangle width="26" height="34" as="alternateBounds"/>
                    </mxGeometry>
                </mxCell>
                <mxCell id="lEeiBPhJxZQjCqQOIjRc-100" value="0" style="shape=partialRectangle;html=1;whiteSpace=wrap;connectable=0;overflow=hidden;fillColor=none;top=0;left=0;bottom=0;right=0;fontSize=20;" parent="lEeiBPhJxZQjCqQOIjRc-98" vertex="1">
                    <mxGeometry x="26" width="23" height="34" as="geometry">
                        <mxRectangle width="23" height="34" as="alternateBounds"/>
                    </mxGeometry>
                </mxCell>
                <mxCell id="lEeiBPhJxZQjCqQOIjRc-101" value="1" style="shape=partialRectangle;html=1;whiteSpace=wrap;connectable=0;overflow=hidden;fillColor=none;top=0;left=0;bottom=0;right=0;fontSize=20;" parent="lEeiBPhJxZQjCqQOIjRc-98" vertex="1">
                    <mxGeometry x="49" width="26" height="34" as="geometry">
                        <mxRectangle width="26" height="34" as="alternateBounds"/>
                    </mxGeometry>
                </mxCell>
                <mxCell id="lEeiBPhJxZQjCqQOIjRc-102" value="0" style="shape=partialRectangle;html=1;whiteSpace=wrap;connectable=0;overflow=hidden;fillColor=none;top=0;left=0;bottom=0;right=0;fontSize=20;" parent="lEeiBPhJxZQjCqQOIjRc-98" vertex="1">
                    <mxGeometry x="75" width="26" height="34" as="geometry">
                        <mxRectangle width="26" height="34" as="alternateBounds"/>
                    </mxGeometry>
                </mxCell>
                <mxCell id="lEeiBPhJxZQjCqQOIjRc-103" value="0" style="shape=partialRectangle;html=1;whiteSpace=wrap;connectable=0;overflow=hidden;fillColor=none;top=0;left=0;bottom=0;right=0;fontSize=20;" parent="lEeiBPhJxZQjCqQOIjRc-98" vertex="1">
                    <mxGeometry x="101" width="23" height="34" as="geometry">
                        <mxRectangle width="23" height="34" as="alternateBounds"/>
                    </mxGeometry>
                </mxCell>
                <mxCell id="lEeiBPhJxZQjCqQOIjRc-104" value="0" style="shape=partialRectangle;html=1;whiteSpace=wrap;connectable=0;overflow=hidden;fillColor=none;top=0;left=0;bottom=0;right=0;fontSize=20;" parent="lEeiBPhJxZQjCqQOIjRc-98" vertex="1">
                    <mxGeometry x="124" width="26" height="34" as="geometry">
                        <mxRectangle width="26" height="34" as="alternateBounds"/>
                    </mxGeometry>
                </mxCell>
                <mxCell id="lEeiBPhJxZQjCqQOIjRc-105" value="" style="shape=partialRectangle;html=1;whiteSpace=wrap;collapsible=0;dropTarget=0;pointerEvents=0;fillColor=none;top=0;left=0;bottom=0;right=0;points=[[0,0.5],[1,0.5]];portConstraint=eastwest;fontSize=20;" parent="lEeiBPhJxZQjCqQOIjRc-69" vertex="1">
                    <mxGeometry y="167" width="150" height="33" as="geometry"/>
                </mxCell>
                <mxCell id="lEeiBPhJxZQjCqQOIjRc-106" value="0" style="shape=partialRectangle;html=1;whiteSpace=wrap;connectable=0;overflow=hidden;fillColor=none;top=0;left=0;bottom=0;right=0;fontSize=20;" parent="lEeiBPhJxZQjCqQOIjRc-105" vertex="1">
                    <mxGeometry width="26" height="33" as="geometry">
                        <mxRectangle width="26" height="33" as="alternateBounds"/>
                    </mxGeometry>
                </mxCell>
                <mxCell id="lEeiBPhJxZQjCqQOIjRc-107" value="0" style="shape=partialRectangle;html=1;whiteSpace=wrap;connectable=0;overflow=hidden;fillColor=none;top=0;left=0;bottom=0;right=0;fontSize=20;" parent="lEeiBPhJxZQjCqQOIjRc-105" vertex="1">
                    <mxGeometry x="26" width="23" height="33" as="geometry">
                        <mxRectangle width="23" height="33" as="alternateBounds"/>
                    </mxGeometry>
                </mxCell>
                <mxCell id="lEeiBPhJxZQjCqQOIjRc-108" value="0" style="shape=partialRectangle;html=1;whiteSpace=wrap;connectable=0;overflow=hidden;fillColor=none;top=0;left=0;bottom=0;right=0;fontSize=20;" parent="lEeiBPhJxZQjCqQOIjRc-105" vertex="1">
                    <mxGeometry x="49" width="26" height="33" as="geometry">
                        <mxRectangle width="26" height="33" as="alternateBounds"/>
                    </mxGeometry>
                </mxCell>
                <mxCell id="lEeiBPhJxZQjCqQOIjRc-109" value="0" style="shape=partialRectangle;html=1;whiteSpace=wrap;connectable=0;overflow=hidden;fillColor=none;top=0;left=0;bottom=0;right=0;fontSize=20;" parent="lEeiBPhJxZQjCqQOIjRc-105" vertex="1">
                    <mxGeometry x="75" width="26" height="33" as="geometry">
                        <mxRectangle width="26" height="33" as="alternateBounds"/>
                    </mxGeometry>
                </mxCell>
                <mxCell id="lEeiBPhJxZQjCqQOIjRc-110" value="0" style="shape=partialRectangle;html=1;whiteSpace=wrap;connectable=0;overflow=hidden;fillColor=none;top=0;left=0;bottom=0;right=0;fontSize=20;" parent="lEeiBPhJxZQjCqQOIjRc-105" vertex="1">
                    <mxGeometry x="101" width="23" height="33" as="geometry">
                        <mxRectangle width="23" height="33" as="alternateBounds"/>
                    </mxGeometry>
                </mxCell>
                <mxCell id="lEeiBPhJxZQjCqQOIjRc-111" value="0" style="shape=partialRectangle;html=1;whiteSpace=wrap;connectable=0;overflow=hidden;fillColor=none;top=0;left=0;bottom=0;right=0;fontSize=20;" parent="lEeiBPhJxZQjCqQOIjRc-105" vertex="1">
                    <mxGeometry x="124" width="26" height="33" as="geometry">
                        <mxRectangle width="26" height="33" as="alternateBounds"/>
                    </mxGeometry>
                </mxCell>
                <mxCell id="0inmXfkZEoPVOMKfftru-101" value="" style="group;fontSize=20;" parent="1" vertex="1" connectable="0">
                    <mxGeometry x="60" y="365" width="420" height="180" as="geometry"/>
                </mxCell>
                <mxCell id="0inmXfkZEoPVOMKfftru-6" value="1" style="whiteSpace=wrap;html=1;aspect=fixed;fontSize=20;" parent="0inmXfkZEoPVOMKfftru-101" vertex="1">
                    <mxGeometry x="90" y="60" width="30" height="30" as="geometry"/>
                </mxCell>
                <mxCell id="0inmXfkZEoPVOMKfftru-42" value="" style="whiteSpace=wrap;html=1;aspect=fixed;fontSize=20;" parent="0inmXfkZEoPVOMKfftru-101" vertex="1">
                    <mxGeometry x="120" y="60" width="30" height="30" as="geometry"/>
                </mxCell>
                <mxCell id="0inmXfkZEoPVOMKfftru-43" value="2" style="whiteSpace=wrap;html=1;aspect=fixed;fontSize=20;" parent="0inmXfkZEoPVOMKfftru-101" vertex="1">
                    <mxGeometry x="180" y="60" width="30" height="30" as="geometry"/>
                </mxCell>
                <mxCell id="0inmXfkZEoPVOMKfftru-44" value="" style="whiteSpace=wrap;html=1;aspect=fixed;fontSize=20;" parent="0inmXfkZEoPVOMKfftru-101" vertex="1">
                    <mxGeometry x="210" y="60" width="30" height="30" as="geometry"/>
                </mxCell>
                <mxCell id="0inmXfkZEoPVOMKfftru-45" value="4" style="whiteSpace=wrap;html=1;aspect=fixed;fontSize=20;" parent="0inmXfkZEoPVOMKfftru-101" vertex="1">
                    <mxGeometry x="270" y="60" width="30" height="30" as="geometry"/>
                </mxCell>
                <mxCell id="0inmXfkZEoPVOMKfftru-46" value="" style="whiteSpace=wrap;html=1;aspect=fixed;fontSize=20;" parent="0inmXfkZEoPVOMKfftru-101" vertex="1">
                    <mxGeometry x="300" y="60" width="30" height="30" as="geometry"/>
                </mxCell>
                <mxCell id="0inmXfkZEoPVOMKfftru-47" value="5" style="whiteSpace=wrap;html=1;aspect=fixed;fontSize=20;" parent="0inmXfkZEoPVOMKfftru-101" vertex="1">
                    <mxGeometry x="360" y="60" width="30" height="30" as="geometry"/>
                </mxCell>
                <mxCell id="0inmXfkZEoPVOMKfftru-49" value="" style="whiteSpace=wrap;html=1;aspect=fixed;fontSize=20;" parent="0inmXfkZEoPVOMKfftru-101" vertex="1">
                    <mxGeometry x="30" y="60" width="30" height="30" as="geometry"/>
                </mxCell>
                <mxCell id="0inmXfkZEoPVOMKfftru-50" value="3" style="whiteSpace=wrap;html=1;aspect=fixed;fontSize=20;" parent="0inmXfkZEoPVOMKfftru-101" vertex="1">
                    <mxGeometry y="60" width="30" height="30" as="geometry"/>
                </mxCell>
                <mxCell id="0inmXfkZEoPVOMKfftru-51" value="1" style="whiteSpace=wrap;html=1;aspect=fixed;fontSize=20;" parent="0inmXfkZEoPVOMKfftru-101" vertex="1">
                    <mxGeometry x="90" y="30" width="30" height="30" as="geometry"/>
                </mxCell>
                <mxCell id="0inmXfkZEoPVOMKfftru-52" value="" style="whiteSpace=wrap;html=1;aspect=fixed;fontSize=20;" parent="0inmXfkZEoPVOMKfftru-101" vertex="1">
                    <mxGeometry x="120" y="30" width="30" height="30" as="geometry"/>
                </mxCell>
                <mxCell id="0inmXfkZEoPVOMKfftru-53" value="3" style="whiteSpace=wrap;html=1;aspect=fixed;fontSize=20;" parent="0inmXfkZEoPVOMKfftru-101" vertex="1">
                    <mxGeometry x="180" y="30" width="30" height="30" as="geometry"/>
                </mxCell>
                <mxCell id="0inmXfkZEoPVOMKfftru-55" value="" style="whiteSpace=wrap;html=1;aspect=fixed;fontSize=20;" parent="0inmXfkZEoPVOMKfftru-101" vertex="1">
                    <mxGeometry x="30" y="30" width="30" height="30" as="geometry"/>
                </mxCell>
                <mxCell id="0inmXfkZEoPVOMKfftru-56" value="2" style="whiteSpace=wrap;html=1;aspect=fixed;fontSize=20;" parent="0inmXfkZEoPVOMKfftru-101" vertex="1">
                    <mxGeometry y="30" width="30" height="30" as="geometry"/>
                </mxCell>
                <mxCell id="0inmXfkZEoPVOMKfftru-57" value="2" style="whiteSpace=wrap;html=1;aspect=fixed;fontSize=20;" parent="0inmXfkZEoPVOMKfftru-101" vertex="1">
                    <mxGeometry x="90" width="30" height="30" as="geometry"/>
                </mxCell>
                <mxCell id="0inmXfkZEoPVOMKfftru-58" value="" style="whiteSpace=wrap;html=1;aspect=fixed;fontSize=20;" parent="0inmXfkZEoPVOMKfftru-101" vertex="1">
                    <mxGeometry x="120" width="30" height="30" as="geometry"/>
                </mxCell>
                <mxCell id="0inmXfkZEoPVOMKfftru-59" value="3" style="whiteSpace=wrap;html=1;aspect=fixed;fontSize=20;" parent="0inmXfkZEoPVOMKfftru-101" vertex="1">
                    <mxGeometry x="180" width="30" height="30" as="geometry"/>
                </mxCell>
                <mxCell id="0inmXfkZEoPVOMKfftru-61" value="" style="whiteSpace=wrap;html=1;aspect=fixed;fontSize=20;" parent="0inmXfkZEoPVOMKfftru-101" vertex="1">
                    <mxGeometry x="30" width="30" height="30" as="geometry"/>
                </mxCell>
                <mxCell id="0inmXfkZEoPVOMKfftru-62" value="1" style="whiteSpace=wrap;html=1;aspect=fixed;fontSize=20;" parent="0inmXfkZEoPVOMKfftru-101" vertex="1">
                    <mxGeometry width="30" height="30" as="geometry"/>
                </mxCell>
                <mxCell id="0inmXfkZEoPVOMKfftru-71" value="3" style="whiteSpace=wrap;html=1;aspect=fixed;fontSize=20;" parent="0inmXfkZEoPVOMKfftru-101" vertex="1">
                    <mxGeometry x="90" y="90" width="30" height="30" as="geometry"/>
                </mxCell>
                <mxCell id="0inmXfkZEoPVOMKfftru-72" value="" style="whiteSpace=wrap;html=1;aspect=fixed;fontSize=20;" parent="0inmXfkZEoPVOMKfftru-101" vertex="1">
                    <mxGeometry x="120" y="90" width="30" height="30" as="geometry"/>
                </mxCell>
                <mxCell id="0inmXfkZEoPVOMKfftru-73" value="" style="whiteSpace=wrap;html=1;aspect=fixed;fontSize=20;" parent="0inmXfkZEoPVOMKfftru-101" vertex="1">
                    <mxGeometry x="30" y="90" width="30" height="30" as="geometry"/>
                </mxCell>
                <mxCell id="0inmXfkZEoPVOMKfftru-74" value="4" style="whiteSpace=wrap;html=1;aspect=fixed;fontSize=20;" parent="0inmXfkZEoPVOMKfftru-101" vertex="1">
                    <mxGeometry y="90" width="30" height="30" as="geometry"/>
                </mxCell>
                <mxCell id="0inmXfkZEoPVOMKfftru-75" value="3" style="whiteSpace=wrap;html=1;aspect=fixed;fontSize=20;" parent="0inmXfkZEoPVOMKfftru-101" vertex="1">
                    <mxGeometry x="90" y="120" width="30" height="30" as="geometry"/>
                </mxCell>
                <mxCell id="0inmXfkZEoPVOMKfftru-76" value="" style="whiteSpace=wrap;html=1;aspect=fixed;fontSize=20;" parent="0inmXfkZEoPVOMKfftru-101" vertex="1">
                    <mxGeometry x="120" y="120" width="30" height="30" as="geometry"/>
                </mxCell>
                <mxCell id="0inmXfkZEoPVOMKfftru-77" value="" style="whiteSpace=wrap;html=1;aspect=fixed;fontSize=20;" parent="0inmXfkZEoPVOMKfftru-101" vertex="1">
                    <mxGeometry x="30" y="120" width="30" height="30" as="geometry"/>
                </mxCell>
                <mxCell id="0inmXfkZEoPVOMKfftru-78" value="5" style="whiteSpace=wrap;html=1;aspect=fixed;fontSize=20;" parent="0inmXfkZEoPVOMKfftru-101" vertex="1">
                    <mxGeometry y="120" width="30" height="30" as="geometry"/>
                </mxCell>
                <mxCell id="0inmXfkZEoPVOMKfftru-79" value="" style="whiteSpace=wrap;html=1;aspect=fixed;fontSize=20;" parent="0inmXfkZEoPVOMKfftru-101" vertex="1">
                    <mxGeometry x="30" y="150" width="30" height="30" as="geometry"/>
                </mxCell>
                <mxCell id="0inmXfkZEoPVOMKfftru-80" value="6" style="whiteSpace=wrap;html=1;aspect=fixed;fontSize=20;" parent="0inmXfkZEoPVOMKfftru-101" vertex="1">
                    <mxGeometry y="150" width="30" height="30" as="geometry"/>
                </mxCell>
                <mxCell id="0inmXfkZEoPVOMKfftru-81" style="edgeStyle=none;rounded=0;orthogonalLoop=1;jettySize=auto;html=1;exitX=1;exitY=0.5;exitDx=0;exitDy=0;entryX=0;entryY=0.5;entryDx=0;entryDy=0;endArrow=classic;endFill=1;fontSize=20;startArrow=oval;startFill=1;" parent="0inmXfkZEoPVOMKfftru-101" target="0inmXfkZEoPVOMKfftru-57" edge="1">
                    <mxGeometry relative="1" as="geometry">
                        <mxPoint x="45" y="14.800000000000011" as="sourcePoint"/>
                        <mxPoint x="85" y="15.04000000000002" as="targetPoint"/>
                    </mxGeometry>
                </mxCell>
                <mxCell id="0inmXfkZEoPVOMKfftru-82" style="edgeStyle=none;rounded=0;orthogonalLoop=1;jettySize=auto;html=1;exitX=1;exitY=0.5;exitDx=0;exitDy=0;entryX=0;entryY=0.5;entryDx=0;entryDy=0;endArrow=classic;endFill=1;fontSize=20;startArrow=oval;startFill=1;" parent="0inmXfkZEoPVOMKfftru-101" edge="1">
                    <mxGeometry relative="1" as="geometry">
                        <mxPoint x="45" y="44.799999999999955" as="sourcePoint"/>
                        <mxPoint x="90" y="45" as="targetPoint"/>
                    </mxGeometry>
                </mxCell>
                <mxCell id="0inmXfkZEoPVOMKfftru-83" style="edgeStyle=none;rounded=0;orthogonalLoop=1;jettySize=auto;html=1;exitX=1;exitY=0.5;exitDx=0;exitDy=0;entryX=0;entryY=0.5;entryDx=0;entryDy=0;endArrow=classic;endFill=1;fontSize=20;startArrow=oval;startFill=1;" parent="0inmXfkZEoPVOMKfftru-101" edge="1">
                    <mxGeometry relative="1" as="geometry">
                        <mxPoint x="45" y="74.79999999999995" as="sourcePoint"/>
                        <mxPoint x="90" y="75" as="targetPoint"/>
                    </mxGeometry>
                </mxCell>
                <mxCell id="0inmXfkZEoPVOMKfftru-85" style="edgeStyle=none;rounded=0;orthogonalLoop=1;jettySize=auto;html=1;exitX=1;exitY=0.5;exitDx=0;exitDy=0;entryX=0;entryY=0.5;entryDx=0;entryDy=0;endArrow=classic;endFill=1;fontSize=20;startArrow=oval;startFill=1;" parent="0inmXfkZEoPVOMKfftru-101" edge="1">
                    <mxGeometry relative="1" as="geometry">
                        <mxPoint x="45" y="104.99999999999994" as="sourcePoint"/>
                        <mxPoint x="90" y="105.19999999999999" as="targetPoint"/>
                    </mxGeometry>
                </mxCell>
                <mxCell id="0inmXfkZEoPVOMKfftru-86" style="edgeStyle=none;rounded=0;orthogonalLoop=1;jettySize=auto;html=1;exitX=1;exitY=0.5;exitDx=0;exitDy=0;entryX=0;entryY=0.5;entryDx=0;entryDy=0;endArrow=classic;endFill=1;fontSize=20;startArrow=oval;startFill=1;" parent="0inmXfkZEoPVOMKfftru-101" edge="1">
                    <mxGeometry relative="1" as="geometry">
                        <mxPoint x="45" y="134.99999999999994" as="sourcePoint"/>
                        <mxPoint x="90" y="135.2" as="targetPoint"/>
                    </mxGeometry>
                </mxCell>
                <mxCell id="0inmXfkZEoPVOMKfftru-87" style="edgeStyle=none;rounded=0;orthogonalLoop=1;jettySize=auto;html=1;exitX=1;exitY=0.5;exitDx=0;exitDy=0;entryX=0;entryY=0.5;entryDx=0;entryDy=0;endArrow=classic;endFill=1;fontSize=20;startArrow=oval;startFill=1;" parent="0inmXfkZEoPVOMKfftru-101" edge="1">
                    <mxGeometry relative="1" as="geometry">
                        <mxPoint x="135" y="14.799999999999955" as="sourcePoint"/>
                        <mxPoint x="180" y="15" as="targetPoint"/>
                    </mxGeometry>
                </mxCell>
                <mxCell id="0inmXfkZEoPVOMKfftru-88" style="edgeStyle=none;rounded=0;orthogonalLoop=1;jettySize=auto;html=1;exitX=1;exitY=0.5;exitDx=0;exitDy=0;entryX=0;entryY=0.5;entryDx=0;entryDy=0;endArrow=classic;endFill=1;fontSize=20;startArrow=oval;startFill=1;" parent="0inmXfkZEoPVOMKfftru-101" edge="1">
                    <mxGeometry relative="1" as="geometry">
                        <mxPoint x="135" y="44.799999999999955" as="sourcePoint"/>
                        <mxPoint x="180" y="45" as="targetPoint"/>
                    </mxGeometry>
                </mxCell>
                <mxCell id="0inmXfkZEoPVOMKfftru-89" style="edgeStyle=none;rounded=0;orthogonalLoop=1;jettySize=auto;html=1;exitX=1;exitY=0.5;exitDx=0;exitDy=0;entryX=0;entryY=0.5;entryDx=0;entryDy=0;endArrow=classic;endFill=1;fontSize=20;startArrow=oval;startFill=1;" parent="0inmXfkZEoPVOMKfftru-101" edge="1">
                    <mxGeometry relative="1" as="geometry">
                        <mxPoint x="135" y="74.79999999999995" as="sourcePoint"/>
                        <mxPoint x="180" y="75" as="targetPoint"/>
                    </mxGeometry>
                </mxCell>
                <mxCell id="0inmXfkZEoPVOMKfftru-90" style="edgeStyle=none;rounded=0;orthogonalLoop=1;jettySize=auto;html=1;exitX=1;exitY=0.5;exitDx=0;exitDy=0;entryX=0;entryY=0.5;entryDx=0;entryDy=0;endArrow=classic;endFill=1;fontSize=20;startArrow=oval;startFill=1;" parent="0inmXfkZEoPVOMKfftru-101" edge="1">
                    <mxGeometry relative="1" as="geometry">
                        <mxPoint x="225" y="74.79999999999995" as="sourcePoint"/>
                        <mxPoint x="270" y="75" as="targetPoint"/>
                    </mxGeometry>
                </mxCell>
                <mxCell id="0inmXfkZEoPVOMKfftru-91" value="" style="endArrow=none;html=1;fontSize=20;" parent="0inmXfkZEoPVOMKfftru-101" edge="1">
                    <mxGeometry width="50" height="50" relative="1" as="geometry">
                        <mxPoint x="29.5" y="180" as="sourcePoint"/>
                        <mxPoint x="60.5" y="150" as="targetPoint"/>
                    </mxGeometry>
                </mxCell>
                <mxCell id="0inmXfkZEoPVOMKfftru-92" style="edgeStyle=none;rounded=0;orthogonalLoop=1;jettySize=auto;html=1;exitX=1;exitY=0.5;exitDx=0;exitDy=0;entryX=0;entryY=0.5;entryDx=0;entryDy=0;endArrow=classic;endFill=1;fontSize=20;startArrow=oval;startFill=1;" parent="0inmXfkZEoPVOMKfftru-101" edge="1">
                    <mxGeometry relative="1" as="geometry">
                        <mxPoint x="315" y="74.70999999999998" as="sourcePoint"/>
                        <mxPoint x="360" y="74.91000000000003" as="targetPoint"/>
                    </mxGeometry>
                </mxCell>
                <mxCell id="0inmXfkZEoPVOMKfftru-93" value="" style="endArrow=none;html=1;fontSize=20;" parent="0inmXfkZEoPVOMKfftru-101" edge="1">
                    <mxGeometry width="50" height="50" relative="1" as="geometry">
                        <mxPoint x="119" y="120" as="sourcePoint"/>
                        <mxPoint x="150" y="90" as="targetPoint"/>
                    </mxGeometry>
                </mxCell>
                <mxCell id="0inmXfkZEoPVOMKfftru-94" value="" style="endArrow=none;html=1;fontSize=20;" parent="0inmXfkZEoPVOMKfftru-101" edge="1">
                    <mxGeometry width="50" height="50" relative="1" as="geometry">
                        <mxPoint x="119" y="150" as="sourcePoint"/>
                        <mxPoint x="150" y="120" as="targetPoint"/>
                    </mxGeometry>
                </mxCell>
                <mxCell id="0inmXfkZEoPVOMKfftru-95" value="" style="whiteSpace=wrap;html=1;aspect=fixed;fontSize=20;" parent="0inmXfkZEoPVOMKfftru-101" vertex="1">
                    <mxGeometry x="210" width="30" height="30" as="geometry"/>
                </mxCell>
                <mxCell id="0inmXfkZEoPVOMKfftru-96" value="" style="whiteSpace=wrap;html=1;aspect=fixed;fontSize=20;" parent="0inmXfkZEoPVOMKfftru-101" vertex="1">
                    <mxGeometry x="210" y="30" width="30" height="30" as="geometry"/>
                </mxCell>
                <mxCell id="0inmXfkZEoPVOMKfftru-97" value="" style="endArrow=none;html=1;fontSize=20;" parent="0inmXfkZEoPVOMKfftru-101" edge="1">
                    <mxGeometry width="50" height="50" relative="1" as="geometry">
                        <mxPoint x="209" y="30" as="sourcePoint"/>
                        <mxPoint x="240" as="targetPoint"/>
                    </mxGeometry>
                </mxCell>
                <mxCell id="0inmXfkZEoPVOMKfftru-98" value="" style="endArrow=none;html=1;fontSize=20;" parent="0inmXfkZEoPVOMKfftru-101" edge="1">
                    <mxGeometry width="50" height="50" relative="1" as="geometry">
                        <mxPoint x="209" y="60" as="sourcePoint"/>
                        <mxPoint x="240" y="30" as="targetPoint"/>
                    </mxGeometry>
                </mxCell>
                <mxCell id="0inmXfkZEoPVOMKfftru-99" value="" style="whiteSpace=wrap;html=1;aspect=fixed;fontSize=20;" parent="0inmXfkZEoPVOMKfftru-101" vertex="1">
                    <mxGeometry x="390" y="60" width="30" height="30" as="geometry"/>
                </mxCell>
                <mxCell id="0inmXfkZEoPVOMKfftru-100" value="" style="endArrow=none;html=1;fontSize=20;" parent="0inmXfkZEoPVOMKfftru-101" edge="1">
                    <mxGeometry width="50" height="50" relative="1" as="geometry">
                        <mxPoint x="389" y="90" as="sourcePoint"/>
                        <mxPoint x="420" y="60" as="targetPoint"/>
                    </mxGeometry>
                </mxCell>
            </root>
        </mxGraphModel>
    </diagram>
</mxfile>